<svg width="61" height="68" viewBox="0 0 61 68" fill="none" xmlns="http://www.w3.org/2000/svg">
<path fill-rule="evenodd" clip-rule="evenodd" d="M2.83575 19.6338C4.67456 20.6054 6.218 21.4627 8.5046 21.9913C9.06672 19.5815 10.6911 18.4384 10.8674 16.3286C9.05242 15.8429 7.93771 14.4427 6.14655 13.4997L2.84052 19.6291L2.83575 19.6338Z" fill="white"/>
<path fill-rule="evenodd" clip-rule="evenodd" d="M42.0141 62.0875C42.4571 63.9877 42.9859 65.8451 43.4289 67.7502C46.2252 67.5168 47.5877 66.4357 50.041 65.8642C49.879 63.9496 48.4642 61.6922 47.6782 60.2015C46.3157 60.9207 43.9053 61.9351 42.0093 62.0875H42.0141Z" fill="white"/>
<path fill-rule="evenodd" clip-rule="evenodd" d="M19.8188 65.8635C22.3865 66.4588 23.6013 67.6875 26.4309 67.7542C26.7596 66.3492 27.3122 63.6822 27.8457 62.563C25.9498 61.6534 24.1396 61.239 22.1769 60.2055C21.3909 61.6867 19.9761 63.9441 19.8141 65.8682L19.8188 65.8635Z" fill="white"/>
<path fill-rule="evenodd" clip-rule="evenodd" d="M19.8141 2.17832C19.9761 4.09287 21.3909 6.35032 22.1769 7.841C24.1348 6.80752 25.9498 6.38842 27.8457 5.48353C27.3122 4.3691 26.7548 1.69731 26.4309 0.292355C23.6013 0.354268 22.3865 1.58301 19.8189 2.18309L19.8141 2.17832Z" fill="white"/>
<path fill-rule="evenodd" clip-rule="evenodd" d="M2.84052 48.4063L6.14655 54.5357C7.93771 53.5927 9.05719 52.1878 10.8674 51.7068C10.6959 49.597 9.06672 48.454 8.5046 46.0441C6.22753 46.5775 4.67932 47.43 2.83575 48.4016L2.84052 48.4063Z" fill="white"/>
<path fill-rule="evenodd" clip-rule="evenodd" d="M51.4435 9.72673C52.2486 10.8221 54.9354 12.6747 56.1644 13.4987L60.0564 9.83627C59.0322 8.36464 56.4788 5.9405 54.7496 5.47853C53.3109 6.43581 52.4344 8.24081 51.4435 9.72673Z" fill="white"/>
<path fill-rule="evenodd" clip-rule="evenodd" d="M0 31.4227C2.36757 31.4227 2.91064 31.8941 5.66884 31.8941C5.71648 29.7939 6.45009 27.7507 6.61206 25.7647C4.32547 25.5742 3.65378 24.8218 0.943219 24.8218C0.39539 27.1697 0 28.4508 0 31.4274L0 31.4227Z" fill="white"/>
<path fill-rule="evenodd" clip-rule="evenodd" d="M51.4435 58.3129C52.0676 59.2464 53.9778 61.9943 54.7496 62.5611C56.4788 62.0991 59.0322 59.6797 59.9468 58.3129L56.2787 54.4267C54.9306 55.3649 52.2438 57.2175 51.4435 58.3129Z" fill="white"/>
<path fill-rule="evenodd" clip-rule="evenodd" d="M32.1435 9.24895C32.1435 10.8777 32.4912 11.073 32.6151 12.5494C34.8017 12.5494 37.336 13.2257 37.336 11.1349V7.83447H32.1387V9.24895H32.1435Z" fill="white"/>
<path fill-rule="evenodd" clip-rule="evenodd" d="M32.1387 58.782V60.1969H37.336C37.336 53.3371 38.0696 56.7479 32.6151 55.4808C32.4912 56.9575 32.1387 57.1624 32.1387 58.782Z" fill="white"/>
<path fill-rule="evenodd" clip-rule="evenodd" d="M9.47481 41.3343C10.7705 40.7152 12.2997 40.6009 13.7288 39.9198L13.2572 35.6716C6.26882 35.6716 9.02225 35.9145 9.47481 41.3343Z" fill="white"/>
<path fill-rule="evenodd" clip-rule="evenodd" d="M9.9463 32.3689H13.2523L13.7239 28.1207C12.695 27.6301 11.0086 27.211 9.46992 27.1777C8.86017 29.7828 7.64065 32.3689 9.9463 32.3689Z" fill="white"/>
<path fill-rule="evenodd" clip-rule="evenodd" d="M52.4617 21.0525C53.2477 22.5337 54.0051 23.7577 54.8245 25.3007L58.5974 23.4005C58.1257 21.3716 57.1397 20.3953 56.2441 18.6998C54.9293 19.5809 53.9241 20.2858 52.4617 21.0573V21.0525Z" fill="white"/>
<path fill-rule="evenodd" clip-rule="evenodd" d="M23.6312 10.193C23.817 12.4695 24.5649 12.3695 25.0461 14.4412C26.6514 14.065 27.4756 13.4506 29.3001 13.0268C29.1524 6.43539 27.0325 9.40722 23.6312 10.193Z" fill="white"/>
<path fill-rule="evenodd" clip-rule="evenodd" d="M52.4617 46.9948C54.1099 47.8663 54.5911 48.4807 56.2393 49.3522C57.1397 47.6568 58.1257 46.6852 58.6021 44.6373C57.2254 43.9134 56.4537 43.2705 54.3481 43.2228C53.9622 44.8897 53.181 45.6517 52.4617 46.9948Z" fill="white"/>
<path fill-rule="evenodd" clip-rule="evenodd" d="M40.155 13.0231C41.9748 13.4469 42.8037 14.0661 44.409 14.4376C45.0903 13.1517 45.6714 12.0229 45.8239 10.1894C43.9279 9.74645 43.4039 8.96539 41.103 8.77489C40.7743 10.1894 40.2884 11.461 40.1598 13.0231H40.155Z" fill="white"/>
<path fill-rule="evenodd" clip-rule="evenodd" d="M23.636 57.8455C25.532 58.2884 26.056 59.0695 28.3568 59.26C28.8523 58.2361 29.2667 56.5454 29.3001 55.0118C27.4756 54.5879 26.6514 53.9688 25.0461 53.5973C24.5602 55.669 23.817 55.569 23.6312 57.8455H23.636Z" fill="white"/>
<path fill-rule="evenodd" clip-rule="evenodd" d="M40.1598 55.0118C40.2884 56.5739 40.7743 57.8408 41.103 59.26C43.4039 59.0695 43.9279 58.2837 45.8239 57.8455C45.7762 55.7405 45.1331 54.9737 44.409 53.5973C43.2848 54.1355 41.5127 54.6975 40.155 55.0118H40.1598Z" fill="white"/>
<path fill-rule="evenodd" clip-rule="evenodd" d="M10.8521 23.4102C12.2288 24.1341 13.0006 24.777 15.1061 24.8246C15.411 23.6816 16.4114 22.1481 16.9973 21.0527C15.3491 20.1812 14.8679 19.5668 13.2197 18.6952C12.6385 20.8574 11.4285 20.9622 10.8521 23.4102Z" fill="white"/>
<path fill-rule="evenodd" clip-rule="evenodd" d="M15.9603 52.0662C17.0131 53.5854 18.466 54.9809 20.3238 55.4762C20.986 54.2284 21.5481 53.4235 22.215 52.1757C21.2528 50.7374 20.3191 50.2898 18.909 49.3468L15.965 52.0662H15.9603Z" fill="white"/>
<path fill-rule="evenodd" clip-rule="evenodd" d="M10.8521 44.6324L13.2149 49.3474C14.8632 48.4758 15.3443 47.8614 16.9926 46.9899C16.4114 45.8945 15.4062 44.361 15.1014 43.218C13.2769 43.3704 12.1431 43.9514 10.8521 44.6324Z" fill="white"/>
<path fill-rule="evenodd" clip-rule="evenodd" d="M47.2445 51.7053C47.8686 54.3866 48.5593 53.3388 49.1357 55.4772C50.9888 54.9867 52.4417 53.5817 53.3897 52.1768L50.6649 49.2383C49.4596 50.0812 48.4116 50.9242 47.2493 51.7053H47.2445Z" fill="white"/>
<path fill-rule="evenodd" clip-rule="evenodd" d="M47.2493 16.3296C48.4164 17.1107 49.4596 17.9537 50.5553 18.6871L53.4945 15.9629C52.4417 14.4437 50.9888 13.0482 49.1309 12.5529C48.5593 14.6961 47.8686 13.6436 47.2445 16.3296H47.2493Z" fill="white"/>
<path fill-rule="evenodd" clip-rule="evenodd" d="M16.0742 15.8606L18.7991 18.7991C20.3187 17.7465 21.2524 17.2988 22.2147 15.8606C21.5477 14.5985 20.9713 13.3745 19.8519 12.5601C19.1278 13.0459 18.6562 13.4364 17.9464 13.9603C16.8698 14.7652 16.8269 14.7366 16.0695 15.8606H16.0742Z" fill="white"/>
<path fill-rule="evenodd" clip-rule="evenodd" d="M21.2501 21.0489C23.7558 24.7932 23.6272 22.1493 25.9709 21.5205C25.6184 20.1962 25.0325 19.3863 24.0797 18.6861C22.3838 19.5864 22.3314 19.434 21.2501 21.0489Z" fill="white"/>
<path fill-rule="evenodd" clip-rule="evenodd" d="M17.4691 26.7018L20.7513 27.7115C21.5802 24.2205 23.1046 25.435 19.3603 22.9251C18.6458 24.2777 17.8645 25.0302 17.4691 26.7018Z" fill="white"/>
<path fill-rule="evenodd" clip-rule="evenodd" d="M26.4489 51.2397C27.9781 51.597 28.5211 52.0448 30.2266 52.1829C30.5505 50.7967 30.6982 50.7395 30.6982 48.8817C29.0975 48.7483 28.9689 48.5196 27.8685 47.9384C27.2778 49.0579 26.7776 49.8582 26.4537 51.2397H26.4489Z" fill="white"/>
<path fill-rule="evenodd" clip-rule="evenodd" d="M38.7374 48.8817C38.785 50.9539 39.0565 50.3489 39.209 52.1829C40.9192 52.04 41.4622 51.5922 42.9866 51.2397C42.6674 49.863 42.1625 49.0532 41.5718 47.9384C40.4714 48.5244 40.3427 48.7483 38.7421 48.8817H38.7374Z" fill="white"/>
<path fill-rule="evenodd" clip-rule="evenodd" d="M26.4537 16.7991C26.7728 18.1758 27.2826 18.9857 27.8685 20.1004C28.9737 19.5144 29.0975 19.2905 30.6982 19.1572C30.6982 17.2945 30.5457 17.2421 30.2266 15.8559C27.9543 16.0464 28.7307 16.6133 26.4489 16.7991H26.4537Z" fill="white"/>
<path fill-rule="evenodd" clip-rule="evenodd" d="M47.7172 42.7436C47.7172 44.0393 48.003 43.7154 50.08 45.1016C50.8803 43.9107 51.5853 42.9722 51.9712 41.3287C50.3706 41.1953 50.2419 40.9667 49.1368 40.3855C49.0272 40.5951 47.7219 42.7388 47.7219 42.7436H47.7172Z" fill="white"/>
<path fill-rule="evenodd" clip-rule="evenodd" d="M17.4691 41.8003C18.1837 43.1485 18.5267 43.8678 19.3603 45.1016C23.1237 42.5816 21.5707 43.7773 20.7751 40.3855C19.3937 40.7047 18.5886 41.2096 17.4691 41.8003Z" fill="white"/>
<path fill-rule="evenodd" clip-rule="evenodd" d="M47.7219 24.3447C47.9172 26.7075 47.6362 24.9402 48.2698 26.1549C48.427 26.4551 48.9367 27.2554 49.1415 27.6412C50.08 27.1887 50.8326 26.9648 51.9759 26.698C51.5901 25.0498 50.885 24.1113 50.0847 22.9251C48.708 23.8445 49.4464 23.8826 47.7172 24.3447H47.7219Z" fill="white"/>
<path fill-rule="evenodd" clip-rule="evenodd" d="M16.0695 36.6162C16.0695 37.8882 16.2934 37.9167 16.5411 38.9743C18.6133 38.9267 18.0131 38.6551 19.8471 38.5027C19.1611 37.2879 19.3755 37.2355 19.3755 35.2014H16.0695V36.6162Z" fill="white"/>
<path fill-rule="evenodd" clip-rule="evenodd" d="M33.0878 16.7978V18.689H36.3938C36.4415 16.6167 36.713 17.2217 36.8655 15.3877H32.6115C32.9401 15.9641 33.0878 15.8879 33.0878 16.8025V16.7978Z" fill="white"/>
<path fill-rule="evenodd" clip-rule="evenodd" d="M43.918 20.5725C43.918 20.6964 45.2042 25.4648 48.172 21.0441C47.2002 19.5864 46.8334 19.1434 44.866 18.6861C44.4325 20.3153 43.9227 19.9342 43.9227 20.5773L43.918 20.5725Z" fill="white"/>
<path fill-rule="evenodd" clip-rule="evenodd" d="M21.2501 46.9919C22.3314 48.6068 22.3886 48.4544 24.0797 49.35C25.0753 48.6211 25.2849 48.0114 25.9709 46.9919L23.6939 45.015C22.5887 45.7867 21.9789 45.9963 21.2501 46.9919Z" fill="white"/>
<path fill-rule="evenodd" clip-rule="evenodd" d="M16.0695 31.4238V32.8386H19.3755V29.5373C18.2655 29.2753 17.9845 29.0991 16.5411 29.0657C16.2934 30.1233 16.0695 30.1518 16.0695 31.4238Z" fill="white"/>
<path fill-rule="evenodd" clip-rule="evenodd" d="M32.6115 52.648H36.8655C36.713 50.814 36.4415 51.419 36.3939 49.3468C33.5213 50.109 35.7793 49.9708 33.0878 49.3468C33.0878 51.3333 33.2831 51.2523 32.6115 52.648Z" fill="white"/>
<path fill-rule="evenodd" clip-rule="evenodd" d="M37.3012 44.6294C37.5537 45.706 37.668 45.7155 37.7728 46.9874C38.9209 46.7207 39.6688 46.4968 40.6072 46.0442C40.2071 45.2153 40.0642 44.5151 39.664 43.6862C38.6827 44.2054 38.5541 44.3293 37.3012 44.6294Z" fill="white"/>
<path fill-rule="evenodd" clip-rule="evenodd" d="M43.918 27.6498C43.918 28.7312 44.0799 28.1976 44.3896 29.541C45.6615 29.4362 45.671 29.3219 46.7524 29.0694C46.5523 26.6542 46.3903 28.4311 45.8092 26.235C45.2137 26.5494 43.9227 26.8828 43.9227 27.6498H43.918Z" fill="white"/>
<path fill-rule="evenodd" clip-rule="evenodd" d="M37.3012 23.4069C38.1301 23.8071 38.8304 23.95 39.664 24.3501C40.0642 23.5213 40.2071 22.821 40.6072 21.9921C39.4592 21.7253 38.7113 21.5014 37.7728 21.0489C37.668 22.3208 37.5584 22.3351 37.3012 23.4069Z" fill="white"/>
<path fill-rule="evenodd" clip-rule="evenodd" d="M22.6734 33.3126C23.7596 33.3126 24.0883 32.9839 24.0883 31.8978C24.0883 30.3305 23.2403 30.5163 21.7255 30.4829C21.6778 32.4599 20.7727 33.3126 22.6687 33.3126H22.6734Z" fill="white"/>
<path fill-rule="evenodd" clip-rule="evenodd" d="M21.7225 37.5563C23.2326 37.5229 24.0853 37.7135 24.0853 36.1414C24.0853 35.0553 23.7566 34.7266 22.6704 34.7266C20.7697 34.7266 21.6796 35.5746 21.7272 37.5563H21.7225Z" fill="white"/>
<path fill-rule="evenodd" clip-rule="evenodd" d="M43.9227 39.9167C43.9227 41.1791 44.6039 41.3125 45.3376 41.8079C46.4761 40.979 46.6 40.8647 46.7524 38.9783C45.2899 38.8544 45.8568 38.9783 44.8612 38.5067C44.5992 38.883 43.918 39.6643 43.918 39.9167H43.9227Z" fill="white"/>
<path fill-rule="evenodd" clip-rule="evenodd" d="M28.7758 21.9921C29.2902 22.9639 29.4284 23.1116 29.719 24.3501C30.5479 23.95 31.2481 23.8071 32.0818 23.4069C31.8293 22.3303 31.715 22.3208 31.6102 21.0489C30.6717 21.4967 29.9191 21.7253 28.7758 21.9921Z" fill="white"/>
<path fill-rule="evenodd" clip-rule="evenodd" d="M22.6677 29.0652C23.9396 29.17 23.9491 29.2891 25.0305 29.5368C25.383 28.0696 26.4644 26.9977 23.6156 26.2355C23.2727 27.698 23.0107 27.6027 22.6724 29.07L22.6677 29.0652Z" fill="white"/>
<path fill-rule="evenodd" clip-rule="evenodd" d="M41.1003 42.7432C41.3861 43.9865 41.529 44.1294 42.0435 45.1012L44.5159 42.848C43.4631 42.0524 42.8486 41.0378 41.1003 42.7432Z" fill="white"/>
<path fill-rule="evenodd" clip-rule="evenodd" d="M28.7758 46.0489C30.243 46.3919 30.1477 46.6491 31.6102 46.9921C31.8627 45.9155 31.977 45.906 32.0818 44.634C29.7571 44.0767 30.0953 43.386 28.7758 46.0489Z" fill="white"/>
<path fill-rule="evenodd" clip-rule="evenodd" d="M41.105 25.2997C43.1249 26.7003 42.5151 26.5669 44.4111 25.2997L42.1531 22.8321C41.5338 23.9135 41.3956 24.0612 41.1003 25.2997H41.105Z" fill="white"/>
<path fill-rule="evenodd" clip-rule="evenodd" d="M33.5021 22.9369C35.3552 22.9798 34.6121 22.8083 35.8649 23.4085C35.9126 21.4268 36.8225 20.5741 34.9217 20.5741H33.5069V22.9369H33.5021Z" fill="white"/>
<path fill-rule="evenodd" clip-rule="evenodd" d="M33.5069 47.4614H34.9217C36.7701 47.4614 35.9936 46.6468 35.8649 45.1034H33.5021V47.4614H33.5069Z" fill="white"/>
<path fill-rule="evenodd" clip-rule="evenodd" d="M25.4312 43.1135L27.3176 45.2095C27.6892 44.7236 28.3656 43.9424 28.3656 43.6899C28.3656 42.4275 27.6844 42.2941 26.9508 41.7987L25.4312 43.1135Z" fill="white"/>
<path fill-rule="evenodd" clip-rule="evenodd" d="M25.5266 24.8194L26.8413 26.3342L28.461 24.9194C28.0037 24.181 28.099 24.3001 27.8846 23.4045C26.1792 23.5474 26.1792 23.6094 25.5218 24.8194H25.5266Z" fill="white"/>
<path fill-rule="evenodd" clip-rule="evenodd" d="M33.5021 42.7504C34.7598 43.3506 34.0071 43.1791 35.8649 43.222C35.7697 42.0692 35.9173 41.4975 34.8741 41.3784C33.5164 41.2212 34.0595 42.0025 33.5021 42.7504Z" fill="white"/>
<path fill-rule="evenodd" clip-rule="evenodd" d="M27.3932 39.4434L28.908 38.1286C27.8838 37.4093 27.6409 36.609 26.8072 37.4426C25.9736 38.2763 26.7739 38.5192 27.3932 39.4386V39.4434Z" fill="white"/>
<path fill-rule="evenodd" clip-rule="evenodd" d="M25.5218 33.31L27.3939 33.8387C27.3701 31.9285 27.5416 32.6764 26.9414 31.4188C25.5837 31.9047 26.0125 31.3902 25.5218 33.31Z" fill="white"/>
<path fill-rule="evenodd" clip-rule="evenodd" d="M33.5021 25.2911C34.3072 26.8059 34.3834 27.7825 35.8649 25.7627C35.6268 25.3435 35.5601 24.8195 34.9217 24.8195C34.3691 24.8195 33.6165 25.1577 33.5069 25.2958L33.5021 25.2911Z" fill="white"/>
<path fill-rule="evenodd" clip-rule="evenodd" d="M36.3561 41.3293C37.1611 42.8442 37.2374 43.8208 38.7189 41.8009C38.4807 41.3817 38.414 40.8577 37.7757 40.8577C37.2278 40.8577 36.4752 41.1959 36.3608 41.3341L36.3561 41.3293Z" fill="white"/>
<path fill-rule="evenodd" clip-rule="evenodd" d="M28.3212 27.6555C29.4598 29.6801 30.341 28.2986 30.684 28.1271C29.1358 25.2069 28.3355 27.5602 28.3212 27.6555Z" fill="white"/>
<path fill-rule="evenodd" clip-rule="evenodd" d="M36.3608 26.7081C36.3608 26.7081 37.2421 27.1797 37.3041 27.1797C38.6331 27.1797 38.1758 26.9749 38.7189 26.2365C37.0182 23.9165 37.1897 25.5934 36.3561 26.7129L36.3608 26.7081Z" fill="white"/>
<path fill-rule="evenodd" clip-rule="evenodd" d="M28.3212 40.3825C29.8027 42.4023 29.879 41.4257 30.684 39.9109C29.6551 39.6679 28.5642 38.9724 28.3212 40.3825Z" fill="white"/>
<path fill-rule="evenodd" clip-rule="evenodd" d="M30.7208 25.7596C31.5259 27.2745 31.6021 28.2511 33.0836 26.2313C32.331 25.2071 32.1214 25.2166 30.7208 25.7596Z" fill="white"/>
<path fill-rule="evenodd" clip-rule="evenodd" d="M26.0689 36.5942C27.7124 36.1559 27.2741 36.5704 27.4313 34.722H25.5401L26.0689 36.5942Z" fill="white"/>
<path d="M40.2165 39.3587L39.0827 40.3019L40.0259 41.4357L41.1597 40.4924L40.2165 39.3587Z" fill="white"/>
<path d="M40.2165 39.3587L39.0827 40.3019L40.0259 41.4357L41.1597 40.4924L40.2165 39.3587Z" stroke="white" stroke-width="0.19" stroke-miterlimit="22.93"/>
<path d="M40.2165 26.6125L39.0827 27.5557L40.0259 28.6895L41.1597 27.7462L40.2165 26.6125Z" fill="white"/>
</svg>
